<?xml version="1.0" encoding="UTF-8" standalone="no"?>
<svg xmlns:xlink="http://www.w3.org/1999/xlink" height="52.4px" width="53.0px" xmlns="http://www.w3.org/2000/svg">
  <g transform="matrix(1.0, 0.0, 0.0, 1.0, 27.0, 26.2)">
    <path d="M9.85 -24.15 Q19.9 -20.1 24.0 -10.1 28.1 -0.15 23.85 9.8 L23.8 9.85 Q19.55 19.85 9.4 24.05 -0.75 28.25 -10.85 24.15 -20.9 20.1 -25.0 10.1 -29.1 0.15 -24.85 -9.85 -20.55 -19.85 -10.4 -24.05 -0.25 -28.25 9.85 -24.15" fill="#ffffff" fill-rule="evenodd" stroke="none"/>
    <path d="M15.55 -15.55 Q22.0 -9.1 22.0 0.0 22.0 9.1 15.55 15.55 9.1 22.0 0.0 22.0 -9.1 22.0 -15.55 15.55 -22.0 9.1 -22.0 0.0 -22.0 -9.1 -15.6 -15.55 L-15.55 -15.6 Q-9.1 -22.0 0.0 -22.0 9.1 -22.0 15.55 -15.55" fill="#000000" fill-rule="evenodd" stroke="none"/>
    <path d="M-5.5 10.5 L-5.5 -10.05 8.6 0.2 -5.5 10.5" fill="#00cc66" fill-rule="evenodd" stroke="none"/>
  </g>
</svg>
