<?xml version="1.0" encoding="UTF-8" standalone="no"?>
<svg xmlns:xlink="http://www.w3.org/1999/xlink" height="76.4px" width="292.3px" xmlns="http://www.w3.org/2000/svg">
  <g transform="matrix(1.0, 0.0, 0.0, 1.0, 146.15, 38.2)">
    <path d="M-96.7 -16.55 Q-96.7 -18.4 -95.4 -19.7 -94.15 -21.0 -92.3 -21.0 -90.45 -21.0 -89.2 -19.7 -87.9 -18.4 -87.9 -16.55 L-87.9 16.55 Q-87.9 18.4 -89.2 19.65 -90.45 20.95 -92.3 20.95 -94.15 20.95 -95.4 19.65 -96.7 18.4 -96.7 16.55 L-96.7 -16.55" fill="#fff" fill-rule="evenodd" stroke="none"/>
    <path d="M-124.1 -22.3 Q-114.95 -22.3 -108.45 -15.85 -102.0 -9.35 -102.0 -0.25 -102.0 8.9 -108.45 15.4 -114.95 21.85 -124.1 21.85 -133.2 21.85 -139.7 15.4 -146.15 8.9 -146.15 -0.25 L-146.15 -33.8 Q-146.15 -35.6 -144.85 -36.9 -143.6 -38.2 -141.75 -38.2 -139.9 -38.2 -138.65 -36.9 -137.35 -35.6 -137.35 -33.8 L-137.35 -17.9 Q-131.45 -22.3 -124.1 -22.3 M-114.75 9.1 Q-110.85 5.25 -110.85 -0.25 -110.85 -5.7 -114.75 -9.6 -118.6 -13.5 -124.1 -13.5 -129.55 -13.5 -133.45 -9.6 -137.35 -5.7 -137.35 -0.25 -137.35 5.25 -133.45 9.1 -129.55 13.0 -124.1 13.0 -118.6 13.0 -114.75 9.1" fill="#fff" fill-rule="evenodd" stroke="none"/>
    <path d="M-42.7 -15.85 Q-36.25 -9.35 -36.25 -0.25 L-36.25 16.55 Q-36.25 18.4 -37.55 19.65 -38.8 20.95 -40.65 20.95 -42.5 20.95 -43.75 19.65 -45.05 18.4 -45.05 16.55 L-45.05 -0.25 Q-45.05 -5.7 -48.95 -9.6 -52.8 -13.5 -58.3 -13.5 -63.75 -13.5 -67.65 -9.6 -71.55 -5.7 -71.55 -0.25 L-71.55 16.55 Q-71.55 18.4 -72.85 19.65 -74.15 20.95 -75.95 20.95 -77.8 20.95 -79.1 19.65 -80.4 18.4 -80.4 16.55 L-80.4 -0.25 Q-80.4 -9.35 -73.9 -15.85 -67.45 -22.3 -58.3 -22.3 -49.2 -22.3 -42.7 -15.85" fill="#fff" fill-rule="evenodd" stroke="none"/>
    <path d="M43.7 -20.65 Q45.5 -20.65 46.8 -19.35 48.1 -18.1 48.1 -16.25 L48.1 16.85 Q48.1 18.7 46.8 19.95 45.5 21.25 43.7 21.25 41.85 21.25 40.55 19.95 39.25 18.7 39.25 16.85 L39.25 -16.25 Q39.25 -18.1 40.55 -19.35 41.85 -20.65 43.7 -20.65" fill="#fff" fill-rule="evenodd" stroke="none"/>
    <path d="M10.55 -22.0 Q19.7 -22.0 26.2 -15.5 32.65 -9.05 32.65 0.1 32.65 9.2 26.2 15.7 19.7 22.15 10.55 22.15 3.2 22.15 -2.7 17.75 L-2.7 33.65 Q-2.7 35.45 -4.0 36.75 -5.25 38.05 -7.1 38.05 -8.95 38.05 -10.2 36.75 -11.5 35.45 -11.5 33.65 L-11.5 0.1 Q-11.5 -9.05 -5.05 -15.5 1.45 -22.0 10.55 -22.0 M19.9 9.45 Q23.8 5.6 23.8 0.1 23.8 -5.35 19.9 -9.25 16.05 -13.15 10.55 -13.15 5.1 -13.15 1.2 -9.25 -2.7 -5.35 -2.7 0.1 -2.7 5.6 1.2 9.45 5.1 13.35 10.55 13.35 16.05 13.35 19.9 9.45" fill="#fff" fill-rule="evenodd" stroke="none"/>
    <path d="M77.65 -22.0 Q86.8 -22.0 93.3 -15.5 99.75 -9.05 99.75 0.1 99.75 9.2 93.3 15.7 86.8 22.15 77.65 22.15 70.3 22.15 64.45 17.75 L64.45 33.65 Q64.45 35.45 63.15 36.75 61.85 38.05 60.0 38.05 58.15 38.05 56.9 36.75 55.6 35.45 55.6 33.65 L55.6 0.1 Q55.6 -9.05 62.05 -15.5 68.55 -22.0 77.65 -22.0 M87.0 9.45 Q90.9 5.6 90.9 0.1 90.9 -5.35 87.0 -9.25 83.15 -13.15 77.65 -13.15 72.2 -13.15 68.3 -9.25 64.45 -5.4 64.45 0.1 64.45 5.6 68.3 9.45 72.2 13.35 77.65 13.35 83.15 13.35 87.0 9.45" fill="#fff" fill-rule="evenodd" stroke="none"/>
    <path d="M112.1 0.1 Q112.1 3.1 113.4 5.8 L131.1 -11.9 Q128.3 -13.15 125.35 -13.15 119.85 -13.15 116.0 -9.3 112.1 -5.4 112.1 0.1 M133.8 -20.35 Q137.85 -18.65 141.0 -15.55 142.3 -14.25 142.3 -12.4 142.3 -10.55 141.0 -9.3 L119.65 12.05 Q122.35 13.35 125.35 13.35 130.85 13.35 134.75 9.45 136.7 7.55 137.65 5.05 138.35 3.35 140.0 2.65 141.7 1.95 143.4 2.65 145.1 3.35 145.8 5.0 146.5 6.7 145.8 8.4 144.1 12.6 140.95 15.7 137.85 18.8 133.8 20.5 129.75 22.15 125.35 22.15 120.95 22.15 116.9 20.5 112.9 18.8 109.75 15.7 106.65 12.55 104.95 8.55 103.3 4.5 103.3 0.1 103.3 -4.3 104.95 -8.35 106.65 -12.4 109.75 -15.55 116.3 -22.0 125.35 -22.0 129.75 -22.0 133.8 -20.35" fill="#fff" fill-rule="evenodd" stroke="none"/>
    <path d="M-92.3 -24.95 Q-95.05 -24.95 -97.0 -26.9 -98.95 -28.85 -98.95 -31.6 -98.95 -34.35 -97.0 -36.25 -95.05 -38.2 -92.3 -38.2 -89.55 -38.2 -87.65 -36.25 -85.7 -34.35 -85.7 -31.6 -85.7 -28.85 -87.65 -26.9 -89.55 -24.95 -92.3 -24.95" fill="#fff" fill-rule="evenodd" stroke="none"/>
    <path d="M43.7 -38.2 Q46.45 -38.2 48.35 -36.25 50.3 -34.35 50.3 -31.6 50.3 -28.85 48.35 -26.9 46.45 -24.95 43.7 -24.95 40.95 -24.95 39.0 -26.9 37.05 -28.8 37.05 -31.6 37.05 -34.35 39.0 -36.25 40.95 -38.2 43.7 -38.2" fill="#fff" fill-rule="evenodd" stroke="none"/>
    <path d="M-23.0 -21.4 Q-21.15 -21.4 -19.85 -20.1 -18.55 -18.85 -18.55 -17.0 L-18.55 16.1 Q-18.55 25.25 -25.05 31.75 -31.55 38.2 -40.65 38.2 -49.75 38.2 -56.25 31.75 -62.7 25.25 -62.7 16.1 -62.7 14.25 -61.4 13.0 -60.15 11.7 -58.3 11.7 -56.45 11.7 -55.2 13.0 -53.9 14.25 -53.9 16.1 -53.9 21.6 -50.0 25.45 -46.1 29.35 -40.65 29.35 -35.15 29.35 -31.3 25.45 -27.4 21.6 -27.4 16.1 L-27.4 -12.6 -30.1 -12.6 Q-31.95 -12.6 -33.2 -13.9 -34.5 -15.15 -34.5 -17.0 -34.5 -18.85 -33.2 -20.1 -31.95 -21.4 -30.1 -21.4 L-24.0 -21.4 -23.5 -21.35 -23.0 -21.4" fill="#fff" fill-rule="evenodd" stroke="none"/>
  </g>
</svg>
